{"title":"Numb 2016 Movies HDRip XviD AAC New Source with Sample ☻rDX☻","uid":15733101,"size":740216301,"categoryP":"video","categoryS":"movies","magnet":"?xt=urn:btih:d1de2d12e30da677e7a522cbb48927655b661180&amp;dn=Numb+2016+Movies+HDRip+XviD+AAC+New+Source+with+Sample+%E2%98%BBrDX%E2%98%BB&amp;tr=udp%3A%2F%2Ftracker.leechers-paradise.org%3A6969&amp;tr=udp%3A%2F%2Fzer0day.ch%3A1337&amp;tr=udp%3A%2F%2Fopen.demonii.com%3A1337&amp;tr=udp%3A%2F%2Ftracker.coppersurfer.tk%3A6969&amp;tr=udp%3A%2F%2Fexodus.desync.com%3A6969","seeders":0,"leechers":2,"uploader":"basicssom","files":2,"time":1472810484,"description":"----------------------------------------------------------------\r\nNumb 2016 English Movies HDRip XviD AAC New Source with Sample ☻rDX☻\r\n\r\nSCREEN SHOTS &amp; POSTER:\r\n  \nhttp://postimage.co.nr/2016/9/cheap/index.htm  \nhttp://postimage.co.nr/2016/9/cheap/1.html  \nhttp://postimage.co.nr/2016/9/cheap/2.html  \nhttp://postimage.co.nr/2016/9/cheap/3.html  \nhttp://postimage.co.nr/2016/9/cheap/4.html  \nhttp://postimage.co.nr/2016/9/cheap/5.html  \nhttp://postimage.co.nr/2016/9/cheap/6.html  \nhttp://postimage.co.nr/2016/9/cheap/7.html  \nhttp://postimage.co.nr/2016/9/cheap/8.html  \nhttp://postimage.co.nr/2016/9/cheap/9.html  \nhttp://postimage.co.nr/2016/9/cheap/10.html\r\n\r\nFormat                                   : Matroska\r\nFormat version                           : Version 4 / Version 2\r\nFile size                                : 698 MiB\r\nDuration                                 : 1 h 24 min\r\nOverall bit rate mode                    : Constant\r\nOverall bit rate                         : 1 152 kb/s\r\nMovie name                               : Numb 2016 English Movies HDRip XviD AAC New Source ☻rDX☻\r\n\r\nVideo\r\nID                                       : 2\r\nFormat                                   : AVC\r\nFormat/Info                              : Advanced Video Codec\r\nFormat profile                           :   \r\nFormat settings, CABAC                   : Yes\r\nFormat settings, ReFrames                : 2 frames\r\nFormat settings, GOP                     : M=1, N=12\r\nCodec ID                                 : V_MPEG4/ISO/AVC\r\nDuration                                 : 1 h 24 min\r\nBit rate mode                            : Constant\r\nBit rate                                 : 769 kb/s\r\nWidth                                    : 720 pixels\r\nHeight                                   : 400 pixels\r\nDisplay aspect ratio                     : 16:9\r\nFrame rate mode                          : Constant\r\nFrame rate                               : 25.000 FPS\r\nColor space                              : YUV\r\nChroma subsampling                       : 4:2:0\r\nBit depth                                : 8 bits\r\nScan type                                : Progressive\r\nBits/(Pixel*Frame)                       : 0.107\r\nStream size                              : 451 MiB (65%)\r\nTitle                                    : ☻rDX☻\r\nDefault                                  : Yes\r\nForced                                   : No\r\n\r\nAudio\r\nID                                       : 1\r\nFormat                                   : AC-3\r\nFormat/Info                              : Audio Coding 3\r\nMode extension                           : CM (complete main)\r\nFormat settings, Endianness              : Big\r\nCodec ID                                 : A_AC3\r\nDuration                                 : 1 h 24 min\r\nBit rate mode                            : Constant\r\nBit rate                                 : 384 kb/s\r\nChannel(s)                               : 6 channels\r\nChannel positions                        : Front: L C R, Side: L R, LFE\r\nSampling rate                            : 48.0 kHz\r\nFrame rate                               : 31.250 FPS (1536 spf)\r\nCompression mode                         : Lossy\r\nStream size                              : 233 MiB (33%)\r\nTitle                                    : ☻rDX☻\r\nDefault                                  : Yes\r\nForced                                   : No\r\n\r\nIMDB \nhttp://www.imdb.com/title/tt4470266/","torrent":{"xt":"urn:btih:d1de2d12e30da677e7a522cbb48927655b661180","amp;dn":"Numb+2016+Movies+HDRip+XviD+AAC+New+Source+with+Sample+%E2%98%BBrDX%E2%98%BB","amp;tr":["udp%3A%2F%2Ftracker.leechers-paradise.org%3A6969","udp%3A%2F%2Fzer0day.ch%3A1337","udp%3A%2F%2Fopen.demonii.com%3A1337","udp%3A%2F%2Ftracker.coppersurfer.tk%3A6969","udp%3A%2F%2Fexodus.desync.com%3A6969"],"infoHash":"d1de2d12e30da677e7a522cbb48927655b661180","infoHashBuffer":{"type":"Buffer","data":[209,222,45,18,227,13,166,119,231,165,34,203,180,137,39,101,91,102,17,128]},"announce":[],"urlList":[]}}